<svg width="16" height="16" viewBox="0 0 16 16" fill="none" xmlns="http://www.w3.org/2000/svg">
<path d="M10.5 9H5.5V8H0.5V14.125C0.5 14.2245 0.539509 14.3198 0.609835 14.3902C0.680161 14.4605 0.775544 14.5 0.875 14.5H15.125C15.2245 14.5 15.3198 14.4605 15.3902 14.3902C15.4605 14.3198 15.5 14.2245 15.5 14.125V8H10.5V9ZM15.5 3.875C15.5 3.77554 15.4605 3.68016 15.3902 3.60983C15.3198 3.53951 15.2245 3.5 15.125 3.5H12V1.75C12 1.6837 11.9737 1.62011 11.9268 1.57322C11.8799 1.52634 11.8163 1.5 11.75 1.5H4.25C4.1837 1.5 4.12011 1.52634 4.07322 1.57322C4.02634 1.62011 4 1.6837 4 1.75V3.5H0.875C0.775544 3.5 0.680161 3.53951 0.609835 3.60983C0.539509 3.68016 0.5 3.77554 0.5 3.875V7H15.5V3.875ZM10.75 3.5H5.25V2.75H10.75V3.5Z" fill="url(#paint0_linear_1_2)"/>
<defs>
<linearGradient id="paint0_linear_1_2" x1="8" y1="1.5" x2="8" y2="14.5" gradientUnits="userSpaceOnUse">
<stop stop-color="#00E6FF"/>
<stop offset="1" stop-color="#5000C9"/>
</linearGradient>
</defs>
</svg>
